<mxfile host="Electron" modified="2023-06-17T20:15:30.289Z" agent="Mozilla/5.0 (Macintosh; Intel Mac OS X 10_15_7) AppleWebKit/537.36 (KHTML, like Gecko) draw.io/21.2.8 Chrome/112.0.5615.165 Electron/24.2.0 Safari/537.36" etag="otbFhRUiUG36P9gq7Ywe" version="21.2.8" type="device" pages="3">
  <diagram id="rpL6jWQ9c_XShN91FnCf" name="va-uc">
    <mxGraphModel dx="6442" dy="3268" grid="1" gridSize="10" guides="1" tooltips="1" connect="1" arrows="1" fold="1" page="0" pageScale="1" pageWidth="1100" pageHeight="850" math="0" shadow="0">
      <root>
        <mxCell id="0" />
        <mxCell id="1" parent="0" />
        <mxCell id="Wj3O3esyXGBeLHRU0bX4-7" value="starts" style="edgeStyle=none;curved=1;rounded=0;orthogonalLoop=1;jettySize=auto;html=1;strokeColor=#182E3E;fontSize=12;startSize=8;endSize=8;align=center;verticalAlign=bottom;horizontal=1;fontStyle=1;labelBackgroundColor=none;fontColor=default;" edge="1" parent="1" source="Wj3O3esyXGBeLHRU0bX4-3" target="Wj3O3esyXGBeLHRU0bX4-6">
          <mxGeometry x="0.0041" relative="1" as="geometry">
            <mxPoint as="offset" />
          </mxGeometry>
        </mxCell>
        <mxCell id="Ydh97llOuo6vlsWZ9xoe-21" value="provides" style="edgeStyle=none;curved=1;rounded=0;orthogonalLoop=1;jettySize=auto;html=1;strokeColor=#182E3E;fontSize=12;startSize=8;endSize=8;align=center;verticalAlign=bottom;horizontal=1;fontStyle=1;labelBackgroundColor=none;fontColor=default;" edge="1" parent="1" source="Wj3O3esyXGBeLHRU0bX4-3" target="Ydh97llOuo6vlsWZ9xoe-20">
          <mxGeometry relative="1" as="geometry" />
        </mxCell>
        <mxCell id="Wj3O3esyXGBeLHRU0bX4-3" value="User" style="shape=umlActor;verticalLabelPosition=bottom;verticalAlign=middle;html=1;outlineConnect=0;fontSize=16;rounded=1;labelBackgroundColor=none;fillColor=#56517E;strokeColor=#EEEEEE;strokeWidth=2;align=center;horizontal=1;whiteSpace=wrap;fontStyle=1;fontColor=#FFFFFF;" vertex="1" parent="1">
          <mxGeometry x="-4885" y="-1440" width="30" height="60" as="geometry" />
        </mxCell>
        <mxCell id="Wj3O3esyXGBeLHRU0bX4-11" value="in a&amp;nbsp;" style="edgeStyle=none;curved=1;rounded=0;orthogonalLoop=1;jettySize=auto;html=1;strokeColor=#182E3E;fontSize=12;startSize=8;endSize=8;align=center;verticalAlign=bottom;horizontal=1;fontStyle=1;labelBackgroundColor=none;fontColor=default;" edge="1" parent="1" source="Wj3O3esyXGBeLHRU0bX4-6" target="Wj3O3esyXGBeLHRU0bX4-8">
          <mxGeometry relative="1" as="geometry" />
        </mxCell>
        <mxCell id="Wj3O3esyXGBeLHRU0bX4-14" value="contains" style="edgeStyle=none;curved=1;rounded=0;orthogonalLoop=1;jettySize=auto;html=1;strokeColor=#182E3E;fontSize=12;startSize=8;endSize=8;align=center;verticalAlign=bottom;horizontal=1;fontStyle=1;labelBackgroundColor=none;fontColor=default;" edge="1" parent="1" source="Wj3O3esyXGBeLHRU0bX4-6" target="Wj3O3esyXGBeLHRU0bX4-13">
          <mxGeometry relative="1" as="geometry" />
        </mxCell>
        <mxCell id="Wj3O3esyXGBeLHRU0bX4-6" value="Conversation" style="html=1;fontSize=16;verticalAlign=middle;fillColor=#56517E;strokeColor=#EEEEEE;rounded=1;labelBackgroundColor=none;strokeWidth=2;align=center;horizontal=1;whiteSpace=wrap;fontStyle=1;fontColor=#FFFFFF;" vertex="1" parent="1">
          <mxGeometry x="-4720" y="-1480" width="120" height="60" as="geometry" />
        </mxCell>
        <mxCell id="Ydh97llOuo6vlsWZ9xoe-4" value="with a&amp;nbsp;" style="edgeStyle=none;curved=1;rounded=0;orthogonalLoop=1;jettySize=auto;html=1;strokeColor=#182E3E;fontSize=12;startSize=8;endSize=8;align=center;verticalAlign=bottom;horizontal=1;fontStyle=1;labelBackgroundColor=none;fontColor=default;" edge="1" parent="1" source="Wj3O3esyXGBeLHRU0bX4-8" target="Ydh97llOuo6vlsWZ9xoe-3">
          <mxGeometry relative="1" as="geometry" />
        </mxCell>
        <mxCell id="Wj3O3esyXGBeLHRU0bX4-8" value="Chat Session" style="html=1;fontSize=16;verticalAlign=middle;fillColor=#56517E;strokeColor=#EEEEEE;rounded=1;labelBackgroundColor=none;strokeWidth=2;align=center;horizontal=1;whiteSpace=wrap;fontStyle=1;fontColor=#FFFFFF;" vertex="1" parent="1">
          <mxGeometry x="-4720" y="-1640" width="120" height="60" as="geometry" />
        </mxCell>
        <mxCell id="Ydh97llOuo6vlsWZ9xoe-2" value="" style="edgeStyle=none;curved=1;rounded=0;orthogonalLoop=1;jettySize=auto;html=1;strokeColor=#182E3E;fontSize=12;startSize=8;endSize=8;align=center;verticalAlign=bottom;horizontal=1;fontStyle=1;labelBackgroundColor=none;fontColor=default;" edge="1" parent="1" source="Wj3O3esyXGBeLHRU0bX4-13" target="Ydh97llOuo6vlsWZ9xoe-1">
          <mxGeometry relative="1" as="geometry" />
        </mxCell>
        <mxCell id="Wj3O3esyXGBeLHRU0bX4-13" value="Interactions" style="html=1;fontSize=16;verticalAlign=middle;fillColor=#56517E;strokeColor=#EEEEEE;rounded=1;labelBackgroundColor=none;strokeWidth=2;align=center;horizontal=1;whiteSpace=wrap;fontStyle=1;fontColor=#FFFFFF;" vertex="1" parent="1">
          <mxGeometry x="-4720" y="-1200" width="120" height="60" as="geometry" />
        </mxCell>
        <mxCell id="Ydh97llOuo6vlsWZ9xoe-9" value="in a" style="edgeStyle=none;curved=1;rounded=0;orthogonalLoop=1;jettySize=auto;html=1;strokeColor=#182E3E;fontSize=12;startSize=8;endSize=8;align=center;verticalAlign=bottom;horizontal=1;fontStyle=1;labelBackgroundColor=none;fontColor=default;" edge="1" parent="1" source="Ydh97llOuo6vlsWZ9xoe-1" target="Ydh97llOuo6vlsWZ9xoe-8">
          <mxGeometry relative="1" as="geometry" />
        </mxCell>
        <mxCell id="Ydh97llOuo6vlsWZ9xoe-1" value="Questions" style="html=1;fontSize=16;verticalAlign=middle;fillColor=#56517E;strokeColor=#EEEEEE;rounded=1;labelBackgroundColor=none;strokeWidth=2;align=center;horizontal=1;whiteSpace=wrap;fontStyle=1;fontColor=#FFFFFF;" vertex="1" parent="1">
          <mxGeometry x="-4280" y="-1200" width="120" height="60" as="geometry" />
        </mxCell>
        <mxCell id="Ydh97llOuo6vlsWZ9xoe-6" value="Finds" style="edgeStyle=none;curved=1;rounded=0;orthogonalLoop=1;jettySize=auto;html=1;strokeColor=#182E3E;fontSize=12;startSize=8;endSize=8;align=center;verticalAlign=bottom;horizontal=1;fontStyle=1;labelBackgroundColor=none;fontColor=default;" edge="1" parent="1" source="Ydh97llOuo6vlsWZ9xoe-3" target="Ydh97llOuo6vlsWZ9xoe-5">
          <mxGeometry relative="1" as="geometry" />
        </mxCell>
        <mxCell id="Ydh97llOuo6vlsWZ9xoe-12" value="searches" style="edgeStyle=none;curved=1;rounded=0;orthogonalLoop=1;jettySize=auto;html=1;strokeColor=#182E3E;fontSize=12;startSize=8;endSize=8;align=center;verticalAlign=bottom;horizontal=1;fontStyle=1;labelBackgroundColor=none;fontColor=default;" edge="1" parent="1" source="Ydh97llOuo6vlsWZ9xoe-3" target="Ydh97llOuo6vlsWZ9xoe-11">
          <mxGeometry relative="1" as="geometry" />
        </mxCell>
        <mxCell id="Ydh97llOuo6vlsWZ9xoe-15" value="submits" style="edgeStyle=none;curved=1;rounded=0;orthogonalLoop=1;jettySize=auto;html=1;strokeColor=#182E3E;fontSize=12;startSize=8;endSize=8;align=center;verticalAlign=bottom;horizontal=1;fontStyle=1;labelBackgroundColor=none;fontColor=default;" edge="1" parent="1" source="Ydh97llOuo6vlsWZ9xoe-3" target="Ydh97llOuo6vlsWZ9xoe-14">
          <mxGeometry relative="1" as="geometry" />
        </mxCell>
        <mxCell id="Ydh97llOuo6vlsWZ9xoe-24" value="learns from" style="edgeStyle=orthogonalEdgeStyle;rounded=0;orthogonalLoop=1;jettySize=auto;html=1;exitX=0.25;exitY=0;exitDx=0;exitDy=0;entryX=0.5;entryY=0;entryDx=0;entryDy=0;strokeColor=#182E3E;fontSize=12;startSize=8;endSize=8;elbow=vertical;align=center;verticalAlign=bottom;horizontal=1;fontStyle=1;labelBackgroundColor=none;fontColor=default;" edge="1" parent="1" source="Ydh97llOuo6vlsWZ9xoe-3" target="Ydh97llOuo6vlsWZ9xoe-20">
          <mxGeometry relative="1" as="geometry" />
        </mxCell>
        <mxCell id="Ydh97llOuo6vlsWZ9xoe-29" value="transfers session" style="edgeStyle=none;curved=1;rounded=0;orthogonalLoop=1;jettySize=auto;html=1;strokeColor=#182E3E;fontSize=12;startSize=8;endSize=8;align=center;verticalAlign=bottom;horizontal=1;fontStyle=1;labelBackgroundColor=none;fontColor=default;" edge="1" parent="1" source="Ydh97llOuo6vlsWZ9xoe-3" target="Ydh97llOuo6vlsWZ9xoe-28">
          <mxGeometry relative="1" as="geometry" />
        </mxCell>
        <mxCell id="Ydh97llOuo6vlsWZ9xoe-31" value="creats" style="edgeStyle=none;curved=1;rounded=0;orthogonalLoop=1;jettySize=auto;html=1;strokeColor=#182E3E;fontSize=12;startSize=8;endSize=8;align=center;verticalAlign=bottom;horizontal=1;fontStyle=1;labelBackgroundColor=none;fontColor=default;" edge="1" parent="1" source="Ydh97llOuo6vlsWZ9xoe-3" target="Ydh97llOuo6vlsWZ9xoe-30">
          <mxGeometry relative="1" as="geometry" />
        </mxCell>
        <mxCell id="Ydh97llOuo6vlsWZ9xoe-41" value="&lt;b&gt;collects&lt;/b&gt;" style="edgeStyle=orthogonalEdgeStyle;rounded=0;orthogonalLoop=1;jettySize=auto;html=1;entryX=1;entryY=1;entryDx=0;entryDy=0;strokeColor=#182E3E;fontSize=12;startSize=8;endSize=8;exitX=0;exitY=0;exitDx=0;exitDy=0;labelBackgroundColor=none;fontColor=default;verticalAlign=bottom;" edge="1" parent="1" source="Ydh97llOuo6vlsWZ9xoe-3" target="Ydh97llOuo6vlsWZ9xoe-35">
          <mxGeometry relative="1" as="geometry" />
        </mxCell>
        <mxCell id="Ydh97llOuo6vlsWZ9xoe-42" value="learns from" style="edgeStyle=orthogonalEdgeStyle;rounded=0;orthogonalLoop=1;jettySize=auto;html=1;entryX=1;entryY=0.5;entryDx=0;entryDy=0;strokeColor=#182E3E;fontSize=12;startSize=8;endSize=8;fontStyle=1;labelBackgroundColor=none;fontColor=default;verticalAlign=bottom;" edge="1" parent="1" source="Ydh97llOuo6vlsWZ9xoe-3" target="Ydh97llOuo6vlsWZ9xoe-35">
          <mxGeometry relative="1" as="geometry">
            <Array as="points">
              <mxPoint x="-4440" y="-1770" />
            </Array>
          </mxGeometry>
        </mxCell>
        <mxCell id="Ydh97llOuo6vlsWZ9xoe-3" value="Virtual Agent" style="html=1;fontSize=16;verticalAlign=middle;fillColor=#56517E;strokeColor=#EEEEEE;rounded=1;labelBackgroundColor=none;strokeWidth=2;align=center;horizontal=1;whiteSpace=wrap;fontStyle=1;fontColor=#FFFFFF;" vertex="1" parent="1">
          <mxGeometry x="-4480" y="-1640" width="120" height="60" as="geometry" />
        </mxCell>
        <mxCell id="Ydh97llOuo6vlsWZ9xoe-7" value="To&amp;nbsp;" style="edgeStyle=orthogonalEdgeStyle;rounded=0;orthogonalLoop=1;jettySize=auto;html=1;entryX=1;entryY=0.5;entryDx=0;entryDy=0;strokeColor=#182E3E;fontSize=12;startSize=8;endSize=8;align=center;verticalAlign=bottom;horizontal=1;fontStyle=1;labelBackgroundColor=none;fontColor=default;" edge="1" parent="1" source="Ydh97llOuo6vlsWZ9xoe-5" target="Ydh97llOuo6vlsWZ9xoe-1">
          <mxGeometry relative="1" as="geometry" />
        </mxCell>
        <mxCell id="Ydh97llOuo6vlsWZ9xoe-5" value="Answers" style="html=1;fontSize=16;verticalAlign=middle;fillColor=#56517E;strokeColor=#EEEEEE;rounded=1;labelBackgroundColor=none;strokeWidth=2;align=center;horizontal=1;whiteSpace=wrap;fontStyle=1;fontColor=#FFFFFF;" vertex="1" parent="1">
          <mxGeometry x="-4120" y="-1480" width="120" height="60" as="geometry" />
        </mxCell>
        <mxCell id="Ydh97llOuo6vlsWZ9xoe-8" value="Knowledge Domain" style="html=1;fontSize=16;verticalAlign=middle;fillColor=#56517E;strokeColor=#EEEEEE;rounded=1;labelBackgroundColor=none;strokeWidth=2;align=center;horizontal=1;whiteSpace=wrap;fontStyle=1;fontColor=#FFFFFF;" vertex="1" parent="1">
          <mxGeometry x="-4280" y="-1360" width="120" height="60" as="geometry" />
        </mxCell>
        <mxCell id="Ydh97llOuo6vlsWZ9xoe-13" value="in a" style="edgeStyle=none;curved=1;rounded=0;orthogonalLoop=1;jettySize=auto;html=1;entryX=0.5;entryY=0;entryDx=0;entryDy=0;strokeColor=#182E3E;fontSize=12;startSize=8;endSize=8;align=center;verticalAlign=bottom;horizontal=1;fontStyle=1;labelBackgroundColor=none;fontColor=default;" edge="1" parent="1" source="Ydh97llOuo6vlsWZ9xoe-11" target="Ydh97llOuo6vlsWZ9xoe-8">
          <mxGeometry relative="1" as="geometry" />
        </mxCell>
        <mxCell id="Ydh97llOuo6vlsWZ9xoe-11" value="Articles" style="html=1;fontSize=16;verticalAlign=middle;fillColor=#56517E;strokeColor=#EEEEEE;rounded=1;labelBackgroundColor=none;strokeWidth=2;align=center;horizontal=1;whiteSpace=wrap;fontStyle=1;fontColor=#FFFFFF;" vertex="1" parent="1">
          <mxGeometry x="-4280" y="-1480" width="120" height="60" as="geometry" />
        </mxCell>
        <mxCell id="Ydh97llOuo6vlsWZ9xoe-17" value="of a" style="edgeStyle=none;curved=1;rounded=0;orthogonalLoop=1;jettySize=auto;html=1;strokeColor=#182E3E;fontSize=12;startSize=8;endSize=8;align=center;verticalAlign=bottom;horizontal=1;fontStyle=1;labelBackgroundColor=none;fontColor=default;" edge="1" parent="1" source="Ydh97llOuo6vlsWZ9xoe-14" target="Ydh97llOuo6vlsWZ9xoe-16">
          <mxGeometry relative="1" as="geometry" />
        </mxCell>
        <mxCell id="Ydh97llOuo6vlsWZ9xoe-19" value="executed by" style="edgeStyle=none;curved=1;rounded=0;orthogonalLoop=1;jettySize=auto;html=1;strokeColor=#182E3E;fontSize=12;startSize=8;endSize=8;align=center;verticalAlign=bottom;horizontal=1;fontStyle=1;labelBackgroundColor=none;fontColor=default;" edge="1" parent="1" source="Ydh97llOuo6vlsWZ9xoe-14" target="Ydh97llOuo6vlsWZ9xoe-18">
          <mxGeometry relative="1" as="geometry" />
        </mxCell>
        <mxCell id="Ydh97llOuo6vlsWZ9xoe-14" value="Automation Request" style="html=1;fontSize=16;verticalAlign=middle;fillColor=#56517E;strokeColor=#EEEEEE;rounded=1;labelBackgroundColor=none;strokeWidth=2;align=center;horizontal=1;whiteSpace=wrap;fontStyle=1;fontColor=#FFFFFF;" vertex="1" parent="1">
          <mxGeometry x="-4480" y="-1860" width="120" height="60" as="geometry" />
        </mxCell>
        <mxCell id="Ydh97llOuo6vlsWZ9xoe-16" value="Business Process" style="html=1;fontSize=16;verticalAlign=middle;fillColor=#56517E;strokeColor=#EEEEEE;rounded=1;labelBackgroundColor=none;strokeWidth=2;align=center;horizontal=1;whiteSpace=wrap;fontStyle=1;fontColor=#FFFFFF;" vertex="1" parent="1">
          <mxGeometry x="-4240" y="-1860" width="120" height="60" as="geometry" />
        </mxCell>
        <mxCell id="Ydh97llOuo6vlsWZ9xoe-18" value="Automation Engine" style="html=1;fontSize=16;verticalAlign=middle;fillColor=#56517E;strokeColor=#EEEEEE;rounded=1;labelBackgroundColor=none;strokeWidth=2;align=center;horizontal=1;whiteSpace=wrap;fontStyle=1;fontColor=#FFFFFF;" vertex="1" parent="1">
          <mxGeometry x="-4720" y="-1860" width="120" height="60" as="geometry" />
        </mxCell>
        <mxCell id="Ydh97llOuo6vlsWZ9xoe-22" value="of a&amp;nbsp;" style="edgeStyle=none;curved=1;rounded=0;orthogonalLoop=1;jettySize=auto;html=1;entryX=0;entryY=0;entryDx=0;entryDy=0;strokeColor=#182E3E;fontSize=12;startSize=8;endSize=8;align=center;verticalAlign=bottom;horizontal=1;fontStyle=1;labelBackgroundColor=none;fontColor=default;" edge="1" parent="1" source="Ydh97llOuo6vlsWZ9xoe-20" target="Wj3O3esyXGBeLHRU0bX4-6">
          <mxGeometry relative="1" as="geometry" />
        </mxCell>
        <mxCell id="Ydh97llOuo6vlsWZ9xoe-20" value="Feedback" style="html=1;fontSize=16;verticalAlign=middle;fillColor=#56517E;strokeColor=#EEEEEE;rounded=1;labelBackgroundColor=none;strokeWidth=2;align=center;horizontal=1;whiteSpace=wrap;fontStyle=1;fontColor=#FFFFFF;" vertex="1" parent="1">
          <mxGeometry x="-4930" y="-1640" width="120" height="60" as="geometry" />
        </mxCell>
        <mxCell id="Ydh97llOuo6vlsWZ9xoe-28" value="HelpDesk" style="html=1;fontSize=16;verticalAlign=middle;fillColor=#56517E;strokeColor=#EEEEEE;rounded=1;labelBackgroundColor=none;strokeWidth=2;align=center;horizontal=1;whiteSpace=wrap;fontStyle=1;fontColor=#FFFFFF;" vertex="1" parent="1">
          <mxGeometry x="-4480" y="-1480" width="120" height="60" as="geometry" />
        </mxCell>
        <mxCell id="Ydh97llOuo6vlsWZ9xoe-30" value="Support Ticket" style="html=1;fontSize=16;verticalAlign=middle;fillColor=#56517E;strokeColor=#EEEEEE;rounded=1;labelBackgroundColor=none;strokeWidth=2;align=center;horizontal=1;whiteSpace=wrap;fontStyle=1;fontColor=#FFFFFF;" vertex="1" parent="1">
          <mxGeometry x="-4280" y="-1680" width="120" height="60" as="geometry" />
        </mxCell>
        <mxCell id="Ydh97llOuo6vlsWZ9xoe-32" value="Virtual Agent Platform" style="text;strokeColor=none;fillColor=none;html=1;align=center;verticalAlign=middle;rounded=0;fontSize=36;fontColor=#FF0000;fontStyle=1;labelBackgroundColor=none;" vertex="1" parent="1">
          <mxGeometry x="-4890" y="-2010" width="80" height="80" as="geometry" />
        </mxCell>
        <mxCell id="Ydh97llOuo6vlsWZ9xoe-35" value="Implicit Feedback" style="whiteSpace=wrap;html=1;fontSize=16;fillColor=#56517E;strokeColor=#EEEEEE;rounded=1;labelBackgroundColor=none;strokeWidth=2;fontStyle=1;fontColor=#FFFFFF;" vertex="1" parent="1">
          <mxGeometry x="-4920" y="-1800" width="120" height="60" as="geometry" />
        </mxCell>
      </root>
    </mxGraphModel>
  </diagram>
  <diagram id="li198c5MaR8oTwC3FQc7" name="dem-er">
    <mxGraphModel dx="1242" dy="868" grid="1" gridSize="10" guides="1" tooltips="1" connect="1" arrows="1" fold="1" page="0" pageScale="1" pageWidth="1100" pageHeight="850" math="0" shadow="0">
      <root>
        <mxCell id="0" />
        <mxCell id="1" parent="0" />
        <mxCell id="Inc3xAQt4KQaS7gtwBUK-1" style="edgeStyle=orthogonalEdgeStyle;rounded=0;orthogonalLoop=1;jettySize=auto;html=1;dashed=1;" edge="1" parent="1" source="Inc3xAQt4KQaS7gtwBUK-3">
          <mxGeometry relative="1" as="geometry">
            <mxPoint x="470" y="240" as="targetPoint" />
          </mxGeometry>
        </mxCell>
        <mxCell id="Inc3xAQt4KQaS7gtwBUK-2" style="edgeStyle=orthogonalEdgeStyle;rounded=0;orthogonalLoop=1;jettySize=auto;html=1;entryX=0.55;entryY=-0.003;entryDx=0;entryDy=0;entryPerimeter=0;dashed=1;" edge="1" parent="1" source="Inc3xAQt4KQaS7gtwBUK-3" target="Inc3xAQt4KQaS7gtwBUK-17">
          <mxGeometry relative="1" as="geometry" />
        </mxCell>
        <mxCell id="Inc3xAQt4KQaS7gtwBUK-3" value="User" style="swimlane;whiteSpace=wrap;html=1;" vertex="1" parent="1">
          <mxGeometry x="90" y="160" width="200" height="200" as="geometry" />
        </mxCell>
        <mxCell id="Inc3xAQt4KQaS7gtwBUK-4" value="&lt;div&gt;User Department&lt;/div&gt;&lt;div&gt;User Domain&lt;/div&gt;&lt;div&gt;User Email Address&lt;/div&gt;&lt;div&gt;User Full Name&lt;/div&gt;&lt;div&gt;User Office&lt;/div&gt;&lt;div&gt;User Role&lt;/div&gt;&lt;div&gt;Username&lt;/div&gt;&lt;div&gt;Account ID&lt;/div&gt;&lt;div&gt;User ID&lt;/div&gt;" style="text;html=1;align=left;verticalAlign=middle;resizable=0;points=[];autosize=1;strokeColor=none;fillColor=none;" vertex="1" parent="Inc3xAQt4KQaS7gtwBUK-3">
          <mxGeometry x="10" y="25" width="130" height="140" as="geometry" />
        </mxCell>
        <mxCell id="Inc3xAQt4KQaS7gtwBUK-5" style="edgeStyle=orthogonalEdgeStyle;rounded=0;orthogonalLoop=1;jettySize=auto;html=1;dashed=1;" edge="1" parent="1" source="Inc3xAQt4KQaS7gtwBUK-8">
          <mxGeometry relative="1" as="geometry">
            <mxPoint x="830" y="200" as="targetPoint" />
          </mxGeometry>
        </mxCell>
        <mxCell id="Inc3xAQt4KQaS7gtwBUK-6" style="edgeStyle=orthogonalEdgeStyle;rounded=0;orthogonalLoop=1;jettySize=auto;html=1;entryX=0.45;entryY=0.007;entryDx=0;entryDy=0;entryPerimeter=0;" edge="1" parent="1" source="Inc3xAQt4KQaS7gtwBUK-8" target="Inc3xAQt4KQaS7gtwBUK-15">
          <mxGeometry relative="1" as="geometry" />
        </mxCell>
        <mxCell id="Inc3xAQt4KQaS7gtwBUK-7" style="edgeStyle=orthogonalEdgeStyle;rounded=0;orthogonalLoop=1;jettySize=auto;html=1;dashed=1;" edge="1" parent="1" source="Inc3xAQt4KQaS7gtwBUK-8">
          <mxGeometry relative="1" as="geometry">
            <mxPoint x="820" y="800" as="targetPoint" />
            <Array as="points">
              <mxPoint x="750" y="400" />
            </Array>
          </mxGeometry>
        </mxCell>
        <mxCell id="Inc3xAQt4KQaS7gtwBUK-8" value="Device" style="swimlane;whiteSpace=wrap;html=1;startSize=23;" vertex="1" parent="1">
          <mxGeometry x="470" y="140" width="200" height="500" as="geometry" />
        </mxCell>
        <mxCell id="Inc3xAQt4KQaS7gtwBUK-9" value="&lt;div&gt;User ID&lt;/div&gt;&lt;div&gt;Account ID&lt;/div&gt;&lt;div&gt;Account Name&lt;/div&gt;&lt;div&gt;Agent Current Status&lt;/div&gt;&lt;div&gt;Agent Version&lt;/div&gt;&lt;div&gt;City&lt;/div&gt;&lt;div&gt;Country&lt;/div&gt;&lt;div&gt;Department&lt;/div&gt;&lt;div&gt;Device ID&lt;/div&gt;&lt;div&gt;Device CPU Cores&lt;/div&gt;&lt;div&gt;Device CPU Frequency&lt;/div&gt;&lt;div&gt;Device CPU Generation&lt;/div&gt;&lt;div&gt;Device CPU Model&lt;/div&gt;&lt;div&gt;Device CPU Type&lt;/div&gt;&lt;div&gt;Device Manufacturer&lt;/div&gt;&lt;div&gt;Device Memory&lt;/div&gt;&lt;div&gt;Device Model&lt;/div&gt;&lt;div&gt;Device Name&lt;/div&gt;&lt;div&gt;Device Type&lt;/div&gt;&lt;div&gt;Enforce Privacy&lt;/div&gt;&lt;div&gt;IP Address&lt;/div&gt;&lt;div&gt;Last Reporting Datetime&lt;/div&gt;&lt;div&gt;Location&amp;nbsp;&lt;/div&gt;&lt;div&gt;&lt;div&gt;Data Center Location&lt;/div&gt;&lt;div&gt;Days From Last Boot&lt;/div&gt;&lt;/div&gt;&lt;div&gt;&lt;div&gt;OS Architecture&lt;/div&gt;&lt;div&gt;OS Disk Type&lt;/div&gt;&lt;div&gt;OS Name&lt;/div&gt;&lt;div&gt;OS Version&lt;/div&gt;&lt;/div&gt;" style="text;html=1;align=left;verticalAlign=middle;resizable=0;points=[];autosize=1;strokeColor=none;fillColor=none;" vertex="1" parent="Inc3xAQt4KQaS7gtwBUK-8">
          <mxGeometry x="10" y="30" width="150" height="430" as="geometry" />
        </mxCell>
        <mxCell id="Inc3xAQt4KQaS7gtwBUK-10" style="edgeStyle=orthogonalEdgeStyle;rounded=0;orthogonalLoop=1;jettySize=auto;html=1;entryX=0.5;entryY=0;entryDx=0;entryDy=0;dashed=1;" edge="1" parent="1" source="Inc3xAQt4KQaS7gtwBUK-11" target="Inc3xAQt4KQaS7gtwBUK-13">
          <mxGeometry relative="1" as="geometry" />
        </mxCell>
        <mxCell id="Inc3xAQt4KQaS7gtwBUK-11" value="Application" style="swimlane;whiteSpace=wrap;html=1;startSize=23;" vertex="1" parent="1">
          <mxGeometry x="827" y="130" width="200" height="240" as="geometry" />
        </mxCell>
        <mxCell id="Inc3xAQt4KQaS7gtwBUK-12" value="&lt;div&gt;Application ID&lt;/div&gt;&lt;div&gt;Device ID&lt;/div&gt;&lt;div&gt;Application&lt;/div&gt;&lt;div&gt;Application Type&lt;/div&gt;&lt;div&gt;Application Version&lt;/div&gt;&lt;div&gt;Browser&lt;/div&gt;&lt;div&gt;Business Location&lt;/div&gt;&lt;div&gt;Change Pilot Group&lt;/div&gt;&lt;div&gt;Client Device Name&lt;/div&gt;&lt;div&gt;Client Device Type&lt;/div&gt;" style="text;html=1;align=left;verticalAlign=middle;resizable=0;points=[];autosize=1;strokeColor=none;fillColor=none;" vertex="1" parent="Inc3xAQt4KQaS7gtwBUK-11">
          <mxGeometry x="13" y="40" width="130" height="160" as="geometry" />
        </mxCell>
        <mxCell id="Inc3xAQt4KQaS7gtwBUK-13" value="Application Event" style="swimlane;whiteSpace=wrap;html=1;" vertex="1" parent="1">
          <mxGeometry x="827" y="760" width="200" height="200" as="geometry" />
        </mxCell>
        <mxCell id="Inc3xAQt4KQaS7gtwBUK-14" value="&lt;div&gt;Application ID&lt;/div&gt;&lt;div&gt;Device ID&lt;/div&gt;&lt;div&gt;Activity&lt;/div&gt;&lt;div&gt;&lt;div&gt;Event Category&lt;/div&gt;&lt;div&gt;Event Details&lt;/div&gt;&lt;div&gt;Event Type&lt;/div&gt;&lt;div&gt;&lt;span style=&quot;background-color: initial;&quot;&gt;Title&lt;/span&gt;&lt;/div&gt;&lt;/div&gt;&lt;div&gt;&lt;span style=&quot;background-color: initial;&quot;&gt;Timeframe&lt;br&gt;&lt;/span&gt;&lt;/div&gt;" style="text;html=1;align=left;verticalAlign=middle;resizable=0;points=[];autosize=1;strokeColor=none;fillColor=none;" vertex="1" parent="Inc3xAQt4KQaS7gtwBUK-13">
          <mxGeometry x="23" y="25" width="110" height="130" as="geometry" />
        </mxCell>
        <mxCell id="Inc3xAQt4KQaS7gtwBUK-15" value="Reporting Agent" style="swimlane;whiteSpace=wrap;html=1;" vertex="1" parent="1">
          <mxGeometry x="480" y="750" width="200" height="200" as="geometry" />
        </mxCell>
        <mxCell id="Inc3xAQt4KQaS7gtwBUK-16" value="&lt;font style=&quot;font-size: 29px;&quot;&gt;DEM&lt;/font&gt;" style="text;html=1;strokeColor=none;fillColor=none;align=center;verticalAlign=middle;whiteSpace=wrap;rounded=0;" vertex="1" parent="1">
          <mxGeometry x="120" y="40" width="310" height="30" as="geometry" />
        </mxCell>
        <mxCell id="Inc3xAQt4KQaS7gtwBUK-17" value="Activity" style="swimlane;whiteSpace=wrap;html=1;" vertex="1" parent="1">
          <mxGeometry x="80" y="440" width="200" height="200" as="geometry" />
        </mxCell>
        <mxCell id="Inc3xAQt4KQaS7gtwBUK-18" value="" style="endArrow=classic;html=1;rounded=0;" edge="1" parent="1">
          <mxGeometry width="50" height="50" relative="1" as="geometry">
            <mxPoint x="440" y="42" as="sourcePoint" />
            <mxPoint x="560" y="40" as="targetPoint" />
          </mxGeometry>
        </mxCell>
        <mxCell id="Inc3xAQt4KQaS7gtwBUK-19" value="" style="endArrow=classic;html=1;rounded=0;dashed=1;" edge="1" parent="1">
          <mxGeometry width="50" height="50" relative="1" as="geometry">
            <mxPoint x="440" y="82" as="sourcePoint" />
            <mxPoint x="560" y="80" as="targetPoint" />
          </mxGeometry>
        </mxCell>
        <mxCell id="Inc3xAQt4KQaS7gtwBUK-20" value="1:1 relation" style="text;html=1;strokeColor=none;fillColor=none;align=center;verticalAlign=middle;whiteSpace=wrap;rounded=0;" vertex="1" parent="1">
          <mxGeometry x="580" y="20" width="60" height="30" as="geometry" />
        </mxCell>
        <mxCell id="Inc3xAQt4KQaS7gtwBUK-21" value="1:N relation" style="text;html=1;strokeColor=none;fillColor=none;align=center;verticalAlign=middle;whiteSpace=wrap;rounded=0;" vertex="1" parent="1">
          <mxGeometry x="580" y="70" width="60" height="30" as="geometry" />
        </mxCell>
      </root>
    </mxGraphModel>
  </diagram>
  <diagram id="xBV2r6iF7IoE8slk_3zZ" name="dem-er-1.0">
    <mxGraphModel dx="842" dy="868" grid="1" gridSize="10" guides="1" tooltips="1" connect="1" arrows="1" fold="1" page="0" pageScale="1" pageWidth="1100" pageHeight="850" math="0" shadow="0">
      <root>
        <mxCell id="0" />
        <mxCell id="1" parent="0" />
        <mxCell id="CtzoNdGdWllm24QItfHO-1" value="User" style="swimlane;childLayout=stackLayout;horizontal=1;startSize=50;horizontalStack=0;rounded=1;fontSize=14;fontStyle=1;strokeWidth=2;resizeParent=0;resizeLast=1;shadow=0;dashed=0;align=center;arcSize=4;whiteSpace=wrap;html=1;strokeColor=#788AA3;fontColor=#46495D;fillColor=#B2C9AB;labelBackgroundColor=none;swimlaneLine=1;" vertex="1" parent="1">
          <mxGeometry x="520" y="440" width="200" height="280" as="geometry" />
        </mxCell>
        <mxCell id="CtzoNdGdWllm24QItfHO-2" value="department&lt;br&gt;domain&lt;br&gt;email Address&lt;br&gt;full Name&amp;nbsp;&lt;br&gt;office&lt;br&gt;role&lt;br&gt;username&lt;br&gt;account ID&lt;br&gt;user id&lt;br&gt;&lt;br&gt;" style="align=left;strokeColor=none;fillColor=none;spacingLeft=4;fontSize=12;verticalAlign=top;resizable=0;rotatable=0;part=1;html=1;fontColor=#46495D;labelBackgroundColor=none;swimlaneLine=1;rounded=1;shadow=0;fontStyle=1" vertex="1" parent="CtzoNdGdWllm24QItfHO-1">
          <mxGeometry y="50" width="200" height="230" as="geometry" />
        </mxCell>
        <mxCell id="argG7PuJPWqvoh6IhJqg-1" value="Device" style="swimlane;childLayout=stackLayout;horizontal=1;startSize=50;horizontalStack=0;rounded=1;fontSize=14;fontStyle=1;strokeWidth=2;resizeParent=0;resizeLast=1;shadow=0;dashed=0;align=center;arcSize=4;whiteSpace=wrap;html=1;strokeColor=#788AA3;fontColor=#46495D;fillColor=#B2C9AB;labelBackgroundColor=none;swimlaneLine=1;" vertex="1" parent="1">
          <mxGeometry x="880" y="440" width="240" height="520" as="geometry" />
        </mxCell>
        <mxCell id="argG7PuJPWqvoh6IhJqg-2" value="&lt;div style=&quot;border-color: var(--border-color); color: rgb(0, 0, 0);&quot;&gt;User ID&lt;/div&gt;&lt;div style=&quot;border-color: var(--border-color); color: rgb(0, 0, 0);&quot;&gt;Account ID&lt;/div&gt;&lt;div style=&quot;border-color: var(--border-color); color: rgb(0, 0, 0);&quot;&gt;Account Name&lt;/div&gt;&lt;div style=&quot;border-color: var(--border-color); color: rgb(0, 0, 0);&quot;&gt;Agent Current Status&lt;/div&gt;&lt;div style=&quot;border-color: var(--border-color); color: rgb(0, 0, 0);&quot;&gt;Agent Version&lt;/div&gt;&lt;div style=&quot;border-color: var(--border-color); color: rgb(0, 0, 0);&quot;&gt;City&lt;/div&gt;&lt;div style=&quot;border-color: var(--border-color); color: rgb(0, 0, 0);&quot;&gt;Country&lt;/div&gt;&lt;div style=&quot;border-color: var(--border-color); color: rgb(0, 0, 0);&quot;&gt;Department&lt;/div&gt;&lt;div style=&quot;border-color: var(--border-color); color: rgb(0, 0, 0);&quot;&gt;Device ID&lt;/div&gt;&lt;div style=&quot;border-color: var(--border-color); color: rgb(0, 0, 0);&quot;&gt;Device CPU Cores&lt;/div&gt;&lt;div style=&quot;border-color: var(--border-color); color: rgb(0, 0, 0);&quot;&gt;Device CPU Frequency&lt;/div&gt;&lt;div style=&quot;border-color: var(--border-color); color: rgb(0, 0, 0);&quot;&gt;Device CPU Generation&lt;/div&gt;&lt;div style=&quot;border-color: var(--border-color); color: rgb(0, 0, 0);&quot;&gt;Device CPU Model&lt;/div&gt;&lt;div style=&quot;border-color: var(--border-color); color: rgb(0, 0, 0);&quot;&gt;Device CPU Type&lt;/div&gt;&lt;div style=&quot;border-color: var(--border-color); color: rgb(0, 0, 0);&quot;&gt;Device Manufacturer&lt;/div&gt;&lt;div style=&quot;border-color: var(--border-color); color: rgb(0, 0, 0);&quot;&gt;Device Memory&lt;/div&gt;&lt;div style=&quot;border-color: var(--border-color); color: rgb(0, 0, 0);&quot;&gt;Device Model&lt;/div&gt;&lt;div style=&quot;border-color: var(--border-color); color: rgb(0, 0, 0);&quot;&gt;Device Name&lt;/div&gt;&lt;div style=&quot;border-color: var(--border-color); color: rgb(0, 0, 0);&quot;&gt;Device Type&lt;/div&gt;&lt;div style=&quot;border-color: var(--border-color); color: rgb(0, 0, 0);&quot;&gt;Enforce Privacy&lt;/div&gt;&lt;div style=&quot;border-color: var(--border-color); color: rgb(0, 0, 0);&quot;&gt;IP Address&lt;/div&gt;&lt;div style=&quot;border-color: var(--border-color); color: rgb(0, 0, 0);&quot;&gt;Last Reporting Datetime&lt;/div&gt;&lt;div style=&quot;border-color: var(--border-color); color: rgb(0, 0, 0);&quot;&gt;Location&amp;nbsp;&lt;/div&gt;&lt;div style=&quot;border-color: var(--border-color); color: rgb(0, 0, 0);&quot;&gt;&lt;div style=&quot;border-color: var(--border-color);&quot;&gt;Data Center Location&lt;/div&gt;&lt;div style=&quot;border-color: var(--border-color);&quot;&gt;Days From Last Boot&lt;/div&gt;&lt;/div&gt;&lt;div style=&quot;border-color: var(--border-color); color: rgb(0, 0, 0);&quot;&gt;&lt;div style=&quot;border-color: var(--border-color);&quot;&gt;OS Architecture&lt;/div&gt;&lt;div style=&quot;border-color: var(--border-color);&quot;&gt;OS Disk Type&lt;/div&gt;&lt;div style=&quot;border-color: var(--border-color);&quot;&gt;OS Name&lt;/div&gt;&lt;div style=&quot;border-color: var(--border-color);&quot;&gt;OS Version&lt;/div&gt;&lt;/div&gt;" style="align=left;strokeColor=none;fillColor=none;spacingLeft=4;fontSize=12;verticalAlign=top;resizable=0;rotatable=0;part=1;html=1;fontColor=#46495D;labelBackgroundColor=none;swimlaneLine=1;rounded=1;shadow=0;fontStyle=1" vertex="1" parent="argG7PuJPWqvoh6IhJqg-1">
          <mxGeometry y="50" width="240" height="470" as="geometry" />
        </mxCell>
        <mxCell id="eAUyHtXUNsaT5GKJS0gE-1" value="" style="edgeStyle=orthogonalEdgeStyle;fontSize=12;html=1;endArrow=ERzeroToMany;startArrow=ERmandOne;rounded=0;strokeColor=#788AA3;fontColor=default;startSize=8;endSize=8;fillColor=#B2C9AB;entryX=0;entryY=0.25;entryDx=0;entryDy=0;exitX=1;exitY=0.5;exitDx=0;exitDy=0;labelBackgroundColor=none;strokeWidth=3;" edge="1" parent="1" source="CtzoNdGdWllm24QItfHO-2" target="argG7PuJPWqvoh6IhJqg-2">
          <mxGeometry width="100" height="100" relative="1" as="geometry">
            <mxPoint x="730" y="785" as="sourcePoint" />
            <mxPoint x="830" y="685" as="targetPoint" />
          </mxGeometry>
        </mxCell>
        <mxCell id="Af2SlGao3C-HZNYMFYj_-1" value="Application" style="swimlane;childLayout=stackLayout;horizontal=1;startSize=50;horizontalStack=0;rounded=1;fontSize=14;fontStyle=1;strokeWidth=2;resizeParent=0;resizeLast=1;shadow=0;dashed=0;align=center;arcSize=4;whiteSpace=wrap;html=1;strokeColor=#788AA3;fontColor=#46495D;fillColor=#B2C9AB;labelBackgroundColor=none;swimlaneLine=1;" vertex="1" parent="1">
          <mxGeometry x="880" y="1000" width="200" height="280" as="geometry" />
        </mxCell>
        <mxCell id="Af2SlGao3C-HZNYMFYj_-2" value="&lt;div style=&quot;border-color: var(--border-color); color: rgb(0, 0, 0);&quot;&gt;Application ID&lt;/div&gt;&lt;div style=&quot;border-color: var(--border-color); color: rgb(0, 0, 0);&quot;&gt;Device ID&lt;/div&gt;&lt;div style=&quot;border-color: var(--border-color); color: rgb(0, 0, 0);&quot;&gt;Application&lt;/div&gt;&lt;div style=&quot;border-color: var(--border-color); color: rgb(0, 0, 0);&quot;&gt;Application Type&lt;/div&gt;&lt;div style=&quot;border-color: var(--border-color); color: rgb(0, 0, 0);&quot;&gt;Application Version&lt;/div&gt;&lt;div style=&quot;border-color: var(--border-color); color: rgb(0, 0, 0);&quot;&gt;Browser&lt;/div&gt;&lt;div style=&quot;border-color: var(--border-color); color: rgb(0, 0, 0);&quot;&gt;Business Location&lt;/div&gt;&lt;div style=&quot;border-color: var(--border-color); color: rgb(0, 0, 0);&quot;&gt;Change Pilot Group&lt;/div&gt;&lt;div style=&quot;border-color: var(--border-color); color: rgb(0, 0, 0);&quot;&gt;Client Device Name&lt;/div&gt;&lt;div style=&quot;border-color: var(--border-color); color: rgb(0, 0, 0);&quot;&gt;Client Device Type&lt;/div&gt;" style="align=left;strokeColor=none;fillColor=none;spacingLeft=4;fontSize=12;verticalAlign=top;resizable=0;rotatable=0;part=1;html=1;fontColor=#46495D;labelBackgroundColor=none;swimlaneLine=1;rounded=1;shadow=0;fontStyle=1" vertex="1" parent="Af2SlGao3C-HZNYMFYj_-1">
          <mxGeometry y="50" width="200" height="230" as="geometry" />
        </mxCell>
        <mxCell id="3duQ6duyW9rDNpZQ9TZA-1" value="" style="edgeStyle=orthogonalEdgeStyle;fontSize=12;html=1;endArrow=ERoneToMany;rounded=0;strokeColor=#788AA3;fontColor=default;startSize=8;endSize=8;fillColor=#B2C9AB;entryX=1;entryY=0.25;entryDx=0;entryDy=0;exitX=1;exitY=0.5;exitDx=0;exitDy=0;labelBackgroundColor=none;strokeWidth=3;" edge="1" parent="1" source="argG7PuJPWqvoh6IhJqg-2" target="Af2SlGao3C-HZNYMFYj_-2">
          <mxGeometry width="100" height="100" relative="1" as="geometry">
            <mxPoint x="1150" y="840" as="sourcePoint" />
            <mxPoint x="1230" y="600" as="targetPoint" />
          </mxGeometry>
        </mxCell>
        <mxCell id="bOAExNxq2eTpcH_dtTs5-1" value="Application Event" style="swimlane;childLayout=stackLayout;horizontal=1;startSize=50;horizontalStack=0;rounded=1;fontSize=14;fontStyle=1;strokeWidth=2;resizeParent=0;resizeLast=1;shadow=0;dashed=0;align=center;arcSize=4;whiteSpace=wrap;html=1;strokeColor=#788AA3;fontColor=#46495D;fillColor=#B2C9AB;labelBackgroundColor=none;swimlaneLine=1;" vertex="1" parent="1">
          <mxGeometry x="1240" y="1000" width="200" height="280" as="geometry" />
        </mxCell>
        <mxCell id="bOAExNxq2eTpcH_dtTs5-2" value="&lt;div style=&quot;border-color: var(--border-color); color: rgb(0, 0, 0);&quot;&gt;Application ID&lt;/div&gt;&lt;div style=&quot;border-color: var(--border-color); color: rgb(0, 0, 0);&quot;&gt;Device ID&lt;/div&gt;&lt;div style=&quot;border-color: var(--border-color); color: rgb(0, 0, 0);&quot;&gt;Activity&lt;/div&gt;&lt;div style=&quot;border-color: var(--border-color); color: rgb(0, 0, 0);&quot;&gt;&lt;div style=&quot;border-color: var(--border-color);&quot;&gt;Event Category&lt;/div&gt;&lt;div style=&quot;border-color: var(--border-color);&quot;&gt;Event Details&lt;/div&gt;&lt;div style=&quot;border-color: var(--border-color);&quot;&gt;Event Type&lt;/div&gt;&lt;div style=&quot;border-color: var(--border-color);&quot;&gt;Title&lt;/div&gt;&lt;/div&gt;&lt;div style=&quot;border-color: var(--border-color); color: rgb(0, 0, 0);&quot;&gt;&lt;span style=&quot;border-color: var(--border-color); background-color: initial;&quot;&gt;Timeframe&lt;/span&gt;&lt;/div&gt;" style="align=left;strokeColor=none;fillColor=none;spacingLeft=4;fontSize=12;verticalAlign=top;resizable=0;rotatable=0;part=1;html=1;fontColor=#46495D;labelBackgroundColor=none;swimlaneLine=1;rounded=1;shadow=0;fontStyle=1" vertex="1" parent="bOAExNxq2eTpcH_dtTs5-1">
          <mxGeometry y="50" width="200" height="230" as="geometry" />
        </mxCell>
        <mxCell id="-cBX_8wHS6fHXfCvAd4Y-1" value="" style="edgeStyle=orthogonalEdgeStyle;fontSize=12;html=1;endArrow=ERoneToMany;rounded=0;strokeColor=#788AA3;fontColor=default;startSize=8;endSize=8;fillColor=#B2C9AB;labelBackgroundColor=none;strokeWidth=3;" edge="1" parent="1" source="Af2SlGao3C-HZNYMFYj_-2" target="bOAExNxq2eTpcH_dtTs5-2">
          <mxGeometry width="100" height="100" relative="1" as="geometry">
            <mxPoint x="1190" y="860" as="sourcePoint" />
            <mxPoint x="1290" y="760" as="targetPoint" />
          </mxGeometry>
        </mxCell>
        <mxCell id="v8WDz5Mod1kn45iKAO8s-1" value="Reporting Agent" style="swimlane;childLayout=stackLayout;horizontal=1;startSize=50;horizontalStack=0;rounded=1;fontSize=14;fontStyle=1;strokeWidth=2;resizeParent=0;resizeLast=1;shadow=0;dashed=0;align=center;arcSize=4;whiteSpace=wrap;html=1;strokeColor=#788AA3;fontColor=#46495D;fillColor=#B2C9AB;labelBackgroundColor=none;swimlaneLine=1;" vertex="1" parent="1">
          <mxGeometry x="1240" y="440" width="160" height="120" as="geometry" />
        </mxCell>
        <mxCell id="v8WDz5Mod1kn45iKAO8s-2" value="agentName" style="align=left;strokeColor=none;fillColor=none;spacingLeft=4;fontSize=12;verticalAlign=top;resizable=0;rotatable=0;part=1;html=1;fontColor=#46495D;labelBackgroundColor=none;swimlaneLine=1;rounded=1;shadow=0;fontStyle=1" vertex="1" parent="v8WDz5Mod1kn45iKAO8s-1">
          <mxGeometry y="50" width="160" height="70" as="geometry" />
        </mxCell>
        <mxCell id="dQqMjMc2pqYAQ3krdfXa-1" value="Activity" style="swimlane;childLayout=stackLayout;horizontal=1;startSize=50;horizontalStack=0;rounded=1;fontSize=14;fontStyle=1;strokeWidth=2;resizeParent=0;resizeLast=1;shadow=0;dashed=0;align=center;arcSize=4;whiteSpace=wrap;html=1;strokeColor=#788AA3;fontColor=#46495D;fillColor=#B2C9AB;labelBackgroundColor=none;swimlaneLine=1;" vertex="1" parent="1">
          <mxGeometry x="520" y="1000" width="200" height="280" as="geometry" />
        </mxCell>
        <mxCell id="dQqMjMc2pqYAQ3krdfXa-2" value="type" style="align=left;strokeColor=none;fillColor=none;spacingLeft=4;fontSize=12;verticalAlign=top;resizable=0;rotatable=0;part=1;html=1;fontColor=#46495D;labelBackgroundColor=none;swimlaneLine=1;rounded=1;shadow=0;fontStyle=1" vertex="1" parent="dQqMjMc2pqYAQ3krdfXa-1">
          <mxGeometry y="50" width="200" height="230" as="geometry" />
        </mxCell>
        <mxCell id="CZAYAQppjmDUSlXsPMyc-4" value="" style="edgeStyle=orthogonalEdgeStyle;fontSize=12;html=1;endArrow=ERoneToMany;rounded=0;strokeColor=#788AA3;fontColor=default;startSize=8;endSize=8;fillColor=#B2C9AB;entryX=0.5;entryY=0;entryDx=0;entryDy=0;exitX=0.5;exitY=1;exitDx=0;exitDy=0;labelBackgroundColor=none;strokeWidth=3;" edge="1" parent="1" source="CtzoNdGdWllm24QItfHO-2" target="dQqMjMc2pqYAQ3krdfXa-1">
          <mxGeometry width="100" height="100" relative="1" as="geometry">
            <mxPoint x="610" y="740" as="sourcePoint" />
            <mxPoint x="620" y="900" as="targetPoint" />
          </mxGeometry>
        </mxCell>
        <mxCell id="p2F1QnFQHMSvErxrvYTI-1" value="" style="edgeStyle=orthogonalEdgeStyle;fontSize=12;html=1;endArrow=ERmandOne;startArrow=ERmandOne;rounded=0;strokeColor=#788AA3;fontColor=default;startSize=8;endSize=8;fillColor=#B2C9AB;exitX=1;exitY=0.25;exitDx=0;exitDy=0;entryX=0;entryY=0.5;entryDx=0;entryDy=0;labelBackgroundColor=none;strokeWidth=3;" edge="1" parent="1" source="argG7PuJPWqvoh6IhJqg-2" target="v8WDz5Mod1kn45iKAO8s-1">
          <mxGeometry width="100" height="100" relative="1" as="geometry">
            <mxPoint x="1210" y="690" as="sourcePoint" />
            <mxPoint x="1310" y="590" as="targetPoint" />
          </mxGeometry>
        </mxCell>
        <mxCell id="p2F1QnFQHMSvErxrvYTI-2" value="&lt;h1&gt;&lt;span style=&quot;font-size: 36px; color: rgb(255, 0, 0); background-color: initial;&quot;&gt;Digital Experience Monitoring&lt;/span&gt;&lt;br&gt;&lt;/h1&gt;&lt;div&gt;&lt;h2 style=&quot;border-color: var(--border-color);&quot;&gt;Logical ER Model&lt;/h2&gt;&lt;/div&gt;&lt;pre&gt;version 0.1&lt;/pre&gt;" style="text;strokeColor=none;fillColor=none;html=1;align=left;verticalAlign=middle;whiteSpace=wrap;rounded=1;fontSize=16;fontColor=#46495D;labelBackgroundColor=none;swimlaneLine=1;shadow=0;fontStyle=1" vertex="1" parent="1">
          <mxGeometry x="490" y="140" width="750" height="90" as="geometry" />
        </mxCell>
      </root>
    </mxGraphModel>
  </diagram>
</mxfile>
